<svg width="512" height="512" viewBox="0 0 512 512" fill="none" xmlns="http://www.w3.org/2000/svg">
  <!-- Calendar background -->
  <rect x="10" y="60" width="460" height="420" rx="28" fill="#FFC354"/>

  <!-- Binder rings -->
  <circle cx="125" cy="20" r="30" fill="#FFC354"/>
  <circle cx="256" cy="20" r="30" fill="#FFC354"/>
  <circle cx="387" cy="20" r="30" fill="#FFC354"/>

  <!-- Calendar top bar -->
  <rect x="10" y="20" width="460" height="110" rx="28" fill="#FFC354"/>
  <rect x="10" y="90" width="460" height="55" fill="#FFC354"/>

  <!-- Grid cells background -->
  <rect x="40" y="180" width="120" height="105" rx="12" fill="#4A5568"/>
  <rect x="180" y="180" width="120" height="105" rx="12" fill="#4A5568"/>
  <rect x="320" y="180" width="120" height="105" rx="12" fill="#4A5568"/>
  <rect x="40" y="305" width="120" height="105" rx="12" fill="#4A5568"/>
  <rect x="180" y="305" width="120" height="105" rx="12" fill="#4A5568"/>
  <rect x="320" y="305" width="120" height="105" rx="12" fill="#4A5568"/>

  <!-- Marked dates (circles) -->
  <circle cx="240" cy="232.5" r="38" fill="#FFC354"/>
  <circle cx="380" cy="232.5" r="38" fill="#FFC354"/>
  <circle cx="100" cy="357.5" r="38" fill="#FFC354"/>

  <!-- Checkmark circle background -->
  <circle cx="400" cy="430" r="110" fill="#4A5568"/>
  <circle cx="400" cy="430" r="96" fill="#FFC354"/>

  <!-- Checkmark -->
  <path d="M345 430 L380 465 L455 390" stroke="#4A5568" stroke-width="26" stroke-linecap="round" stroke-linejoin="round" fill="none"/>
</svg>